<?xml version="1.0" encoding="UTF-8" standalone="no"?>
<svg xmlns:inkscape="http://www.inkscape.org/namespaces/inkscape" xmlns:sodipodi="http://sodipodi.sourceforge.net/DTD/sodipodi-0.dtd" xmlns="http://www.w3.org/2000/svg" xmlns:svg="http://www.w3.org/2000/svg" width="204.1954mm" height="99.65731mm" viewBox="0 0 204.1954 99.65731" version="1.1" id="svg5" inkscape:version="1.1.2 (b8e25be833, 2022-02-05)" sodipodi:docname="trans135.svg">
  <defs id="defs2"></defs>
  <g inkscape:label="Layer 1" inkscape:groupmode="layer" id="layer1" transform="translate(-4.3052448,-61.144826)">
    <path style="fill:#ffffff;stroke-width:0.235066;fill-opacity:1" d="m 7.6086289,160.5348 -3.3033841,-0.11893 0.9984237,-5.99418 c 0.5491331,-3.2968 1.0630377,-6.4173 1.1420099,-6.93444 0.078972,-0.51715 0.2197017,-1.36338 0.3127321,-1.88053 l 0.1691461,-0.94026 3.8727554,0.0405 c 2.130015,0.0223 5.683786,0.0487 7.897268,0.0588 l 4.024513,0.0183 0.166382,1.68852 c 0.09151,0.92868 0.368032,3.01783 0.614493,4.64255 0.246462,1.62472 0.610517,4.22339 0.809012,5.77482 0.198497,1.55144 0.414403,3.06174 0.479793,3.35622 l 0.118894,0.53543 -6.999327,-0.0639 c -3.84963,-0.0351 -8.4858499,-0.11742 -10.3027111,-0.18283 z m 23.2239351,-0.0602 c -0.129329,-0.16161 -0.455612,-1.45741 -0.725075,-2.87956 -0.766126,-4.04341 -2.183773,-11.89521 -2.323654,-12.86986 -0.119526,-0.8328 -0.1735,-0.88151 -0.977061,-0.88189 -0.4678,-2.1e-4 -4.107753,-0.11002 -8.088783,-0.24403 -6.471246,-0.21782 -7.332938,-0.293 -8.131938,-0.70946 -2.440272,-1.27194 -2.9798986,-3.46431 -1.7567292,-7.13715 l 0.620568,-1.8634 7.0236972,-7.04295 7.023696,-7.04295 1.477228,0.11857 c 2.162383,0.17358 3.248439,0.865 3.964382,2.52388 0.502457,1.16422 1.063386,3.83528 1.260235,6.00107 0.160453,1.76536 0.524321,3.17339 0.820074,3.17339 0.124303,0 0.229746,-0.13222 0.234316,-0.29383 0.0046,-0.16161 0.367629,-0.81799 0.806793,-1.45863 0.439166,-0.64064 0.746522,-1.24887 0.683014,-1.35163 -0.06351,-0.10276 -9.4e-4,-0.18683 0.139289,-0.18683 0.140118,0 0.357664,-0.238 0.483438,-0.5289 0.125775,-0.29089 0.492141,-0.92117 0.814149,-1.40062 l 0.585464,-0.87172 -1.051113,-0.46496 c -1.582144,-0.69985 -2.56278,-1.54575 -3.229446,-2.78573 -0.838369,-1.55934 -1.002292,-2.82997 -0.560032,-4.34107 0.743802,-2.54141 2.598422,-3.94262 5.466343,-4.12994 1.439661,-0.094 1.862897,-0.025 2.979538,0.48625 2.365045,1.08275 3.868568,4.0954 3.229097,6.47022 -0.298367,1.10804 -1.127383,2.63009 -1.43254,2.63009 -0.109355,0 -0.156338,0.71646 -0.104407,1.59214 0.09272,1.56341 0.07561,1.61918 -0.947642,3.08953 -0.573136,0.82356 -1.643715,2.55077 -2.379067,3.83823 -2.191756,3.83735 -3.467334,4.87885 -5.9754,4.87885 -1.461745,0 -1.99313,-0.33995 -2.822908,-1.80594 -0.4257,-0.7521 -1.112226,-1.87581 -1.525615,-2.49715 l -0.751614,-1.1297 -1.732843,1.48027 c -0.953064,0.81414 -2.103072,1.82404 -2.555574,2.24422 -0.452502,0.42018 -0.902065,0.76488 -0.99903,0.766 -0.09696,0.001 -0.176299,0.30945 -0.176299,0.68517 v 0.68312 l 4.642551,-0.0201 c 4.886955,-0.0212 7.018784,0.24564 7.646175,0.95696 0.286877,0.32525 1.010381,3.6007 1.463318,6.62472 0.150846,1.00713 0.620994,3.60845 0.829291,4.58846 0.109917,0.51715 0.419602,2.26251 0.688191,3.87859 0.268586,1.61608 0.589693,3.36144 0.71357,3.87859 0.384563,1.60541 0.290137,2.35039 -0.38327,3.0238 -0.575053,0.57505 -0.767817,0.61972 -2.674476,0.61972 -1.361682,0 -2.134069,-0.0991 -2.289901,-0.29383 z m 41.954564,-0.11797 c -0.863213,-0.95383 -0.922579,-1.6272 -0.756399,-8.57947 0.133545,-5.58708 0.106673,-6.75975 -0.155092,-6.76744 -0.174149,-0.005 -1.776329,-0.19811 -3.560406,-0.42888 -1.784077,-0.23078 -3.289822,-0.34509 -3.346099,-0.25403 -0.05628,0.0911 0.171809,0.68073 0.506858,1.31038 1.677143,3.15183 1.981427,3.83665 2.182168,4.91116 0.356715,1.9094 -0.02207,2.47333 -2.42969,3.61718 -1.11287,0.52873 -2.071276,0.96132 -2.129793,0.96132 -0.05852,0 -1.140711,0.48652 -2.404877,1.08117 -2.63694,1.24037 -4.707873,2.1931 -6.059535,2.78768 -0.517144,0.22748 -1.257602,0.56764 -1.645461,0.75591 -0.387858,0.18827 -1.398199,0.40188 -2.245205,0.47468 -2.496905,0.21462 -3.711497,-0.72136 -3.297669,-2.54122 0.287702,-1.2652 1.167551,-2.79462 1.732664,-3.01183 0.285609,-0.10979 1.894424,-0.85349 3.575145,-1.65268 1.680721,-0.79918 3.584754,-1.67487 4.231185,-1.94596 0.646431,-0.27109 1.342327,-0.63381 1.546437,-0.80605 0.20411,-0.17223 0.547894,-0.31315 0.763964,-0.31315 0.545438,0 0.494175,-0.29569 -0.253575,-1.46264 -0.660112,-1.03018 -1.375939,-1.88324 -2.937625,-3.5008 -1.161923,-1.20349 -1.824045,-2.47823 -1.815594,-3.49545 0.0043,-0.51613 0.387087,-1.53198 1.019974,-2.70674 2.617907,-4.85933 4.401775,-7.95249 5.080629,-8.80961 1.579743,-1.99459 0.624617,-1.89872 -7.228278,0.72554 -5.555102,1.85638 -6.545688,2.12162 -7.428939,1.98917 -1.087363,-0.16306 -2.011576,-0.83573 -2.054233,-1.49513 -0.101855,-1.57443 0.582258,-2.89738 1.732324,-3.34999 0.92514,-0.3641 2.529011,-1.04933 3.876509,-1.6562 0.549467,-0.24747 1.448594,-0.65223 1.99806,-0.89949 6.13366,-2.76008 11.249723,-4.16593 16.076126,-4.4176 l 2.618606,-0.13654 1.4098,1.08481 c 2.850707,2.19357 3.195034,3.04657 2.407683,5.96454 -0.567794,2.10427 -0.544097,2.06218 -3.295581,5.85379 -2.591686,3.57141 -3.290922,4.59152 -3.290922,4.80109 0,0.19044 1.789801,0.50124 6.699377,1.16334 1.810007,0.24409 3.476037,0.51506 3.702287,0.60215 0.381762,0.14696 0.411366,0.79991 0.411366,9.07326 0,9.37495 -0.05284,9.90493 -1.103195,11.06556 -0.543468,0.60053 -3.591465,0.60656 -4.132994,0.008 z m 12.514082,0.0683 c -0.875959,-0.47657 -1.249909,-1.33663 -1.112233,-2.55808 0.102785,-0.91191 0.296166,-1.2139 1.47666,-2.30602 0.747114,-0.69118 1.75451,-1.62692 2.238661,-2.07942 0.484151,-0.4525 1.077039,-0.98666 1.317528,-1.187 0.789271,-0.65754 6.767777,-5.93268 7.098211,-6.26311 0.352759,-0.35276 0.321145,-0.66288 -0.42667,-4.18565 -1.286048,-6.05824 -1.694597,-8.70308 -1.612465,-10.43869 0.09083,-1.91934 0.151382,-2.06096 3.828597,-8.95425 0.724158,-1.3575 1.975111,-3.77755 2.779891,-5.37787 2.50513,-4.98149 4.46773,-6.27196 7.30628,-4.80409 0.71788,0.37123 2.18437,1.81636 2.46063,2.42479 0.26486,0.58333 2.14011,3.80441 2.87387,4.93638 0.37712,0.58179 0.76114,1.21647 0.85337,1.4104 0.0922,0.19393 1.27231,2.20374 2.6224,4.46625 1.35008,2.26251 2.65119,4.46016 2.89135,4.88368 0.24016,0.42351 1.01791,1.72412 1.72833,2.89024 0.71043,1.16611 1.35544,2.37424 1.43336,2.68471 0.20899,0.83267 -0.30624,2.13684 -1.11208,2.8149 -1.25984,1.06009 -3.59876,0.61207 -4.50317,-0.86258 -0.71867,-1.17181 -2.71412,-4.58141 -3.1363,-5.35897 -1.19698,-2.20456 -4.54862,-7.75718 -4.68235,-7.75718 -0.0457,0 -0.37263,0.50246 -0.72649,1.11656 -0.35385,0.61411 -0.88513,1.44117 -1.18062,1.83791 -0.99102,1.33056 -1.56451,3.7269 -1.07179,4.47846 0.16126,0.24597 3.23215,2.20477 3.4565,2.20477 0.29725,0 3.43202,2.36476 4.26295,3.21583 1.65238,1.69241 1.64068,1.56479 0.8196,8.93401 -0.40065,3.59585 -0.79501,7.08754 -0.87635,7.75932 -0.15788,1.30381 -1.03545,2.49377 -2.15223,2.91837 -1.38133,0.52518 -3.43045,-0.0533 -4.0074,-1.1314 -0.1504,-0.28102 -0.0827,-2.65677 0.19959,-7.00579 0.39812,-6.13316 0.40059,-6.60182 0.0363,-6.89317 -0.82012,-0.65587 -4.03044,-2.62572 -4.2792,-2.62572 -0.18464,0 -0.20961,0.63401 -0.0856,2.17436 0.2262,2.81015 0.23954,6.47882 0.0263,7.22828 -0.14763,0.5188 -1.56747,1.67753 -5.328698,4.34872 -0.364089,0.25857 -1.493465,1.09686 -2.509723,1.86287 -1.016261,0.76601 -2.376643,1.77937 -3.023074,2.2519 -0.646431,0.47254 -1.915787,1.40503 -2.820791,2.07222 -1.556016,1.14712 -1.722127,1.21267 -3.055856,1.20591 -0.775717,-0.004 -1.678962,-0.15327 -2.007208,-0.33185 z m -7.797812,-34.00715 c -1.17005,-0.33052 -2.779047,-1.78685 -3.480084,-3.14988 -0.455525,-0.88569 -0.572764,-1.47478 -0.577651,-2.9025 -0.0053,-1.55831 0.08227,-1.94168 0.673607,-2.94776 1.268133,-2.15757 2.986817,-3.19594 5.275165,-3.18707 3.364986,0.013 5.915923,2.69685 5.915923,6.22408 0,1.27633 -0.601994,3.40846 -0.962359,3.40846 -0.117134,0 -0.21297,0.11261 -0.21297,0.25024 0,0.28287 -1.147147,1.30104 -2.180327,1.93519 -0.83361,0.51166 -3.240367,0.7113 -4.451304,0.36924 z m 78.543712,-1.70991 c -0.54324,-0.36914 -0.94107,-0.89492 -1.14524,-1.51355 -0.53692,-1.62689 -0.17766,-2.93366 1.75045,-6.36695 0.46692,-0.83143 1.2517,-2.25946 1.74395,-3.17339 0.49225,-0.91393 1.16075,-2.13771 1.48555,-2.71949 0.57286,-1.02614 1.22674,-2.22924 2.9384,-5.40652 0.45272,-0.84036 1.48449,-2.74439 2.29282,-4.23119 3.18307,-5.854761 3.20572,-5.907511 3.53239,-8.227301 0.0819,-0.58179 0.29765,-1.90403 0.4794,-2.93832 0.90628,-5.15752 0.095,-4.84783 -4.26557,1.62835 -5.75075,8.540781 -9.0521,13.410431 -9.33659,13.771931 -0.15412,0.19584 -1.00108,1.4282 -1.88213,2.73859 -0.9758,1.4513 -1.80268,2.43636 -2.11559,2.52028 -1.56646,0.42009 -7.08714,-0.11737 -9.24277,-0.89982 -1.54852,-0.56208 -3.11616,-1.62754 -4.02415,-2.73506 -0.43272,-0.5278 -0.61725,-1.30156 -1.00692,-4.22207 -0.2624,-1.96671 -0.60577,-3.818311 -0.76304,-4.114671 -0.40977,-0.77215 -1.78389,-2.19068 -3.17828,-3.28102 -0.66136,-0.51714 -1.20671,-1.012 -1.2119,-1.09967 -0.005,-0.0877 0.59312,-0.38485 1.32957,-0.66039 0.73644,-0.27554 1.60912,-0.64762 1.93929,-0.82683 0.33017,-0.17922 0.97053,-0.47445 1.42303,-0.65609 2.53127,-1.01604 4.8999,-2.01449 7.43907,-3.13578 1.5704,-0.69348 2.93041,-1.26088 3.02225,-1.26088 0.0918,0 0.81676,-0.30275 1.61097,-0.67277 1.43856,-0.67024 3.66491,-1.6179 7.90831,-3.36622 1.22822,-0.50604 2.91742,-1.24111 3.75378,-1.63349 0.83636,-0.39237 2.95195,-1.29802 4.70132,-2.01254 1.74936,-0.71453 3.28644,-1.37557 3.41573,-1.46898 0.12928,-0.0934 0.60529,-0.30808 1.05779,-0.47705 0.4525,-0.16896 1.35163,-0.54429 1.99806,-0.83405 2.22517,-0.99745 2.82604,-1.23786 4.62327,-1.8498 2.01016,-0.68444 2.38637,-0.7451 1.7838,-0.28761 -0.35656,0.2707 -0.20371,0.32843 1.17562,0.44407 1.42087,0.11912 3.51704,0.71214 4.91139,1.38945 0.62097,0.30164 0.7386,0.25976 1.87607,-0.66809 0.50002,-0.40787 2.86606,-2.2899 5.25785,-4.18229 2.3918,-1.89239 4.50739,-3.56867 4.70132,-3.72508 0.19393,-0.1564 0.8815,-0.7073 1.52793,-1.22422 0.64643,-0.51692 1.22822,-0.99415 1.29286,-1.0605 0.86395,-0.88682 5.08299,-3.783 5.84235,-4.01051 1.83623,-0.55014 3.50171,0.42259 3.73784,2.18311 0.23858,1.77874 0.84626,1.21456 -15.897,14.75913 -6.02379,4.87299 -6.59252,5.38997 -7.06106,6.41846 -0.252,0.55318 -0.88695,2.64095 -1.411,4.63947 -0.52405,1.99853 -1.12594,4.2286 -1.33753,4.95571 -0.23846,0.81942 -0.30695,1.45907 -0.18017,1.68252 0.11251,0.19828 1.10368,1.3343 2.20262,2.5245 1.09893,1.190201 2.20962,2.401361 2.46819,2.691471 0.25857,0.29011 1.1577,1.29772 1.99806,2.23913 2.11816,2.37287 2.18275,2.48783 2.18275,3.88498 0,1.25765 -0.4773,2.34804 -1.40515,3.21001 -0.23375,0.21716 -0.53293,0.53449 -0.66483,0.7052 -0.13191,0.1707 -1.34837,1.62086 -2.70326,3.22256 -1.35489,1.6017 -2.99233,3.57255 -3.63876,4.37966 -1.44655,1.80612 -2.84643,2.73605 -4.33387,2.87897 -1.33118,0.12791 -2.33122,-0.31734 -3.08253,-1.37245 -0.43294,-0.60802 -0.4956,-0.92663 -0.37781,-1.92118 0.15061,-1.27165 0.71707,-2.2623 2.19503,-3.83878 0.49383,-0.52674 1.38877,-1.53164 1.98878,-2.23312 0.6,-0.70148 1.47851,-1.69854 1.95225,-2.21568 0.47374,-0.51715 1.06707,-1.16673 1.31851,-1.44353 0.25145,-0.27679 0.45718,-0.57469 0.45718,-0.66198 0,-0.0873 -1.2958,-1.47284 -2.87956,-3.07898 -3.2708,-3.31703 -3.98885,-3.71617 -6.2586,-3.47893 -1.28424,0.13423 -1.34999,0.17492 -1.79425,1.11045 -0.25364,0.53412 -0.51566,1.02401 -0.58226,1.08866 -0.0666,0.0646 -0.34088,0.54065 -0.60951,1.05779 -0.26863,0.51715 -1.63264,3.00297 -3.03115,5.52405 -1.3985,2.52108 -3.01938,5.48291 -3.60195,6.58185 -0.58257,1.09893 -1.23395,2.2625 -1.4475,2.58572 -0.21354,0.32322 -0.64714,1.111 -0.96354,1.75062 -0.3164,0.63963 -1.03455,1.61809 -1.59588,2.17436 -0.93857,0.93011 -1.1184,1.0114 -2.23732,1.0114 -0.89787,0 -1.43487,-0.14823 -2.04913,-0.56563 z m -39.82559,-7.37318 c -1.73316,-0.5717 -3.4934,-2.40298 -4.00659,-4.16829 -0.73639,-2.53311 0.26699,-5.22432 2.52591,-6.77484 2.19823,-1.50887 4.22271,-1.87773 6.5507,-1.19356 3.31964,0.97562 5.24342,3.90683 4.65201,7.08811 -0.25588,1.37635 -1.57042,3.33904 -2.76655,4.1306 -1.94328,1.286 -4.7263,1.6533 -6.95548,0.91798 z m 63.85546,-43.126211 c -1.39333,-0.54875 -3.06417,-2.09974 -3.71527,-3.44878 -0.53101,-1.10022 -0.6853,-3.52108 -0.30987,-4.86196 0.60932,-2.17628 3.3215,-4.32544 5.92103,-4.69188 4.05272,-0.57129 8.05962,2.95423 7.91491,6.96406 -0.17262,4.78367 -5.17668,7.86367 -9.8108,6.03856 z" id="path854"></path>
  </g>
</svg>
